<?xml version="1.0" encoding="UTF-8"?>
<svg width="1600px" height="1200px" viewBox="0 0 1600 1200" version="1.1" xmlns="http://www.w3.org/2000/svg" xmlns:xlink="http://www.w3.org/1999/xlink">
    <g id="Patterns" stroke="none" stroke-width="1" fill="none" fill-rule="evenodd">
        <g id="Mohaka">
            <g transform="translate(-10.000000, -19.000000)" id="Shape">
                <path d="M7.82827274,15.0571429 C81.9855608,11.4941558 155.740367,1.16753247 229.998276,0.181168831 C226.325628,49.0766234 225.188617,98.1230519 222.260561,147.068831 C150.487978,151.819481 79.470049,165.004545 7.47610109,166.725649 C6.51014456,116.169481 7.00318487,65.6032468 7.82827274,15.0571429 Z" fill="#228085"></path>
                <path d="M438.151847,11.5847403 C501.814419,19.536039 551.85298,20.5224026 613.231468,16.7782468 C614.96214,69.8003247 620.90881,122.792208 622.176628,176.015584 C556.260157,178.531818 496.401038,168.13474 430.162581,158.331494 C363.924124,148.528247 290.853537,142.338312 222.693229,147.119156 C225.208741,98.1532468 225.440168,49.0162338 230.913922,0.291883117 C297.615233,-1.23798701 374.489274,3.64350649 438.151847,11.5847403 Z" fill="#D55151"></path>
                <path d="M612.396318,16.6574675 C679.942841,11.0512987 747.41893,13.637987 815.066074,14.563961 C814.884957,64.8886364 815.730169,115.213312 815.679859,165.537987 C750.930585,166.786039 686.452986,172.583442 621.804333,175.995455 C620.928934,122.711688 615.867725,69.7801948 612.396318,16.6574675 Z" fill="#242C2D"></path>
                <path d="M815.066074,14.563961 C881.556082,15.3993506 947.955531,19.4555195 1014.39523,14.725 C1016.29696,63.55 1018.5911,112.425325 1017.81633,161.300649 C950.481105,165.246104 883.085513,164.32013 815.679859,165.507792 C815.730169,115.193182 814.884957,64.8785714 815.066074,14.563961 Z" fill="#F4B943"></path>
                <path d="M1014.39523,14.725 C1087.76768,9.39058442 1161.12,4.23733766 1234.75406,5.04253247 C1231.94675,54.6928571 1229.80354,104.373377 1226.33213,154.003571 C1156.71283,151.447078 1087.26458,157.143831 1017.82639,161.320779 C1018.60117,112.425325 1016.30702,63.55 1014.39523,14.725 Z" fill="#D55151"></path>
                <path d="M1428.72015,170.016883 C1425.14812,220.724026 1416.9073,270.937987 1412.36932,321.554545 C1345.83907,314.509091 1279.48993,305.199026 1212.51694,304.001299 C1216.89393,254.109416 1222.77017,203.955844 1226.30194,154.104221 C1229.83372,104.252597 1231.91657,54.8136364 1234.744,5.0224026 C1301.99873,5.96850649 1368.85097,13.9097403 1435.98495,17.7142857 C1433.15751,68.4616883 1432.28211,119.30974 1428.72015,170.016883 Z" fill="#242C2D" fill-rule="nonzero"></path>
                <path d="M1435.96482,17.7142857 C1498.21871,20.7840909 1560.00974,9.66233766 1622.23344,10.7694805 C1623.57169,65.1805195 1626.44944,119.581494 1624.67852,174.022727 C1559.36577,172.794805 1493.97252,174.566234 1428.75033,169.996753 C1432.20162,119.28961 1433.15751,68.4616883 1435.96482,17.7142857 Z" fill="#F4B943"></path>
                <path d="M207.791337,340.26526 C204.943778,393.820779 205.114378,418.35868 204.480469,465.341797 C138.704866,466.036277 73.2114556,467.586688 7.35535652,470.082792 C7.35535652,425.092532 7.35535652,408.183442 7.65721794,356.238312 C7.95907936,304.293182 8.78416723,222.926552 7.35535652,164.972656 C79.2084358,160.664864 150.417544,147.883442 222.170003,145.568506 C218.416859,204.901299 210.618773,286.699675 207.791337,340.26526 Z" fill="#F4B943"></path>
                <path d="M205.155081,482.88539 C203.796705,429.873377 205.155081,355.161364 210.055298,300.216883 C214.955515,245.272403 218.738845,199.426623 222.310871,146.646104 C292.543961,143.062987 362.545624,148.930844 432.295735,158.03961 C426.097514,209.843831 419.154701,253.716883 408.146822,307.161688 C397.138942,360.606494 393.254992,434.825325 398.366512,487.917857 C403.478032,541.01039 409.847308,577.697078 418.329614,626.813961 C350.34036,613.618831 281.214096,616.306169 212.540624,618.439935 C210.427594,569.534416 206.523519,535.847078 205.155081,482.88539 Z" fill="#228085"></path>
                <path d="M838.812505,314.146753 C771.296168,314.891558 675.203617,337.83961 603.642337,337.769318 C532.081057,337.698701 476.085765,311.952597 408.348063,303.477922 C418.601289,255.458117 427.616883,207.367857 431.490771,158.633442 C497.266374,167.470455 556.833625,179.606412 625.597656,176.09375 C694.361687,172.581088 782.962208,161.813961 848.6875,161.320779 C914.412792,160.827597 958.148385,164.410714 1019.2552,161.320779 C1016.30702,210.155844 1010.60184,258.82987 1007.26124,307.393182 C945.450082,310.372403 906.338904,313.391883 838.812505,314.146753 Z" fill="#EADDCD"></path>
                <path d="M1212.48675,304.474351 C1208.05945,355.231818 1206.02692,407.509091 1207.5966,458.699351 C1135.5624,452.469156 1063.40746,446.46039 991.031156,446.621429 C992.03736,399.245779 998.557567,354.124675 1005.3092,306.829545 C1012.06083,259.534416 1016.91074,209.672727 1017.7962,161.421429 C1087.22433,156.872078 1156.65245,151.648377 1226.33213,153.862662 C1222.68967,204.428896 1216.92412,253.726948 1212.48675,304.474351 Z" fill="#5AA7B2"></path>
                <path d="M1616.68925,350.793182 C1615.68305,401.238636 1619.91917,426.048701 1622.56549,471.22013 C1552.74494,468.05974 1482.9244,470.40487 1413.00323,469.60974 C1411.52411,423.623052 1408.12314,396.719481 1410.76946,345.861364 C1413.41577,295.003247 1424.68527,226.088636 1428.6799,171.093831 C1494.01277,173.932143 1559.36577,171.979545 1624.64833,175.19026 C1622.56549,230.124675 1617.71558,300.347727 1616.68925,350.793182 Z" fill="#D55151"></path>
                <path d="M408.730469,301.402344 C473.127571,310.138707 538.524236,335.49028 604.199219,335.882812 C594.358537,390.585735 585.711769,447.648052 589.505161,503.176299 C524.293033,495.557143 461.264369,476.403571 396.746522,464.929545 C394.291383,410.72987 398.75898,354.68611 408.730469,301.402344 Z" fill="#242C2D"></path>
                <path d="M781.197223,475.608442 C718.31949,492.034416 655.109709,509.960065 589.35423,503.186364 C586.939339,447.527273 588.066288,392.381494 601.730548,337.789286 C674.177288,337.728896 761.878092,314.951948 829.947842,314.176948 C898.017591,313.401948 943.316928,310.533442 1006.93925,307.332792 C996.877205,353.530844 992.490152,399.608117 991.192148,446.681818 C989.894144,493.755519 995.918088,541.491698 1001.32141,588.303711 C939.137955,586.753711 876.967788,597.162662 820.288276,623.361688 C805.446757,574.124026 783.964286,527.694481 781.197223,475.608442 Z" fill="#D55151"></path>
                <path d="M1413.03342,468.321429 C1416.14259,516.743831 1426.90185,579.048662 1429.04507,627.310026 C1359.10378,628.17561 1282.20668,626.645635 1212.46663,617.194661 C1210.37372,565.772908 1209.17634,510.272078 1207.56641,458.749675 C1205.95648,407.227273 1208.07958,355.433117 1212.46663,304.031494 C1279.44968,305.199026 1345.80888,314.499026 1412.31901,321.625 C1408.15332,370.268831 1410.0148,419.909091 1413.03342,468.321429 Z" fill="#228085"></path>
                <path d="M7.36541857,468.713961 C73.3020141,468.492532 139.027307,462.675 204.873344,459.766234 C205.477066,512.425974 210.16598,564.904545 212.500375,617.483766 C144.209261,618.027273 75.9986427,619.677922 7.73771432,619.768506 C7.71759022,569.443831 7.59349164,519.092316 7.36541857,468.713961 Z" fill="#1A9E78"></path>
                <path d="M589.444789,503.01526 C654.848096,510.231818 718.47042,491.752597 781.197223,475.618506 C783.994472,527.654221 805.396446,574.023377 820.25809,623.351623 C757.843211,651.976299 695.609449,666.661039 626.181323,663.168506 C556.753197,659.675974 486.962838,638.378571 418.259179,625.988636 C408.710296,572.563961 399.553833,519.119156 396.766646,464.969805 C461.375052,476.232468 524.051544,495.818831 589.444789,503.01526 Z" fill="#5AA7B2"></path>
                <path d="M991.05128,446.500649 C1063.3974,446.701948 1135.58253,452.227597 1207.58654,458.810065 C1209.24677,510.191558 1213.39234,561.472403 1215.48524,612.803571 C1143.96421,602.597727 1072.60417,590.439286 1000.25805,588.033766 C994.452252,541.030519 990.427433,493.886364 991.05128,446.500649 Z" fill="#1A9E78"></path>
                <path d="M1413.08373,468.643506 C1482.89421,470.978571 1552.755,468.804545 1622.59567,470.173377 C1626.8318,521.927273 1620.83482,573.157792 1616.79993,624.71039 C1553.4996,613.810065 1489.56535,611.213312 1425.43992,611.927922 C1423.26652,564.008766 1416.23315,516.492208 1413.08373,468.643506 Z" fill="#EADDCD"></path>
                <path d="M7.73771432,619.768506 C75.9986427,619.677922 148.445383,617.939991 216.716373,617.396484 C218.728783,664.429926 216.998111,713.783122 216.716373,760.876953 C146.845517,762.980525 77.5683221,771.002242 7.73771432,773.488281 C6.83213007,723.193801 7.70752818,670.093182 7.73771432,619.768506 Z" fill="#EADDCD"></path>
                <path d="M216.84718,759.117532 C218.024439,711.359416 211.816156,664.919805 214.935391,617.906494 C290.843475,613.82013 390.987764,616.732315 459.359375,631.316406 C527.730986,645.900497 565.346186,657.642857 628.807517,663.842857 C635.508841,713.372403 648.468758,764.804221 642.995004,815.571753 C596.598904,816.900325 530.652247,801.108442 491.510883,790.761688 C452.369519,780.414935 460.016675,782.70974 428.552654,775.070455 C426.791795,823.553247 409.95799,868.895779 402.19009,916.281494 C337.682305,903.046104 272.208564,900.066883 206.593954,904.102922 C211.474047,856.234091 215.649796,806.875649 216.84718,759.117532 Z" fill="#F4B943"></path>
                <path d="M401.918414,917.338312 C410.913885,867.949675 421.573519,821.947403 426.171875,772.75 C497.541976,788.20974 568.486212,811.892756 641.949219,814.710937 C641.778164,762.997301 639.644342,713.291883 626.191385,663.269156 C694.613306,666.45974 758.200964,651.606072 820.313982,623.162565 C835.477487,675.701526 838.812505,732.012662 840.412371,786.031169 C842.012236,840.049675 839.174739,892.08539 833.690923,945.610714 C791.832807,952.203247 731.732199,957.950325 694.603244,959.339286 C657.47429,960.728247 655.079523,959.218506 624.24941,958.856169 C619.218386,1002.25617 608.713609,1045.41461 607.868397,1089.4789 C534.475825,1086.52987 461.777533,1077.22987 388.586202,1072.43896 C387.308322,1021.2487 392.933006,966.716883 401.918414,917.338312 Z" fill="#1A9E78"></path>
                <path d="M1030.87686,589.010065 C1097.42795,594.152487 1153.22515,602.510065 1217.51157,610.813636 C1217.51157,655.753571 1221.28484,703.653247 1224.02172,748.462338 C1161.50622,744.677922 1105.59763,739.812987 1041.14015,744.442857 C976.682676,749.072727 903.2132,769.998559 840.285156,791.195312 C837.266542,736.381676 832.971487,676.585563 819.327351,623.291732 C882.496883,590.802121 964.325775,583.867643 1030.87686,589.010065 Z" fill="#228085"></path>
                <path d="M1419.48319,946.878896 C1407.40873,1026.48247 1406.80501,1012.45195 1406.87544,1078.36721 C1355.08609,1062.54513 1352.03729,1068.60422 1288.38478,1059.04253 C1224.73226,1049.48084 1089.17636,1061.33734 1016.77993,1078.36721 C1010.05849,1024.90227 1028.09974,964.613312 1016.77993,912.013961 C1084.43714,894.752597 1153.13074,883.268506 1222.91103,888.98539 C1227.27796,796.569156 1219.26857,704.877597 1215.5758,612.260065 C1284.72219,625.626299 1355.66969,606.734416 1424.63496,616.205519 C1436.28681,710.423377 1431.55765,867.365909 1419.48319,946.878896 Z" fill="#5AA7B2"></path>
                <path d="M1417.6519,955.575 C1425.75184,904.022403 1429.34399,823.351948 1428.58934,767.360714 C1427.83469,711.369481 1427.885,664.92987 1425.36949,611.354221 C1489.53516,611.736688 1553.47947,613.73961 1616.75969,624.438636 C1613.32853,677.219156 1612.10096,726.426623 1613.63039,780.857792 C1615.15982,835.288961 1619.52675,909.286364 1615.82392,959.309091 C1612.12108,1009.33182 1611.37649,1031.00162 1609.89737,1075.31753 C1541.09309,1072.1974 1472.34918,1076.78701 1403.36379,1073.30455 C1406.76476,1027.65 1409.54189,1007.1276 1417.6519,955.575 Z" fill="#D55151"></path>
                <path d="M206.704636,904.223701 C272.107943,899.875649 337.752739,903.156818 402.089469,916.301623 C392.741827,967.864286 387.710804,1020.17175 388.465457,1072.61006 C324.772698,1069.26851 260.425906,1064.55812 196.763334,1066.28929 C133.100761,1068.02045 70.3638963,1071.57338 6.82206802,1073.55617 C8.522554,1027.41851 6.5403307,1002.09513 6.7113855,950.763961 C6.8824403,899.432792 8.55274014,827.770455 7.36541857,771.970455 C77.128946,766.347511 146.892473,761.848485 216.656001,758.473377 C216.193147,807.388961 211.051441,855.670455 206.704636,904.223701 Z" fill="#5AA7B2"></path>
                <path d="M840.573363,786.64513 C896.176236,768.900649 952.644445,753.682468 1010.79302,747.250974 C1011.63823,802.255844 1008.60955,857.522403 1017.11198,912.11461 C957.272987,927.604545 894.09574,937.753571 832.988927,946.419481 C835.896859,893.528247 842.454966,839.657143 840.573363,786.64513 Z" fill="#D55151"></path>
                <path d="M1010.79302,747.250974 C1081.07642,739.007792 1151.95348,742.268831 1222.3375,747.532792 C1224.12854,794.676948 1225.13475,841.851299 1222.88085,888.995455 C1153.31185,883.419481 1084.30633,894.651948 1017.11198,912.144805 C1008.58943,857.522403 1011.63823,802.255844 1010.79302,747.250974 Z" fill="#F4B943"></path>
                <path d="M833.64447,944.731494 C898.916971,935.522078 955.210267,927.755519 1017.70564,912.024026 C1024.97044,964.713961 1029.29712,1017.51461 1028.11986,1070.71786 C959.697941,1080.46071 895.039225,1083.80227 824.97719,1086.66071 C754.915155,1089.51916 679.359243,1092.07565 608.180321,1089.4487 C609.377704,1045.32403 615.296535,1000.08506 623.959958,956.725325 C691.496419,961.647078 768.37197,953.930844 833.64447,944.731494 Z" fill="#228085"></path>
                <path d="M6.95287463,1072.37857 C70.1626553,1072.87175 133.201381,1067.62792 196.370914,1066.18864 C194.197512,1120.28766 192.346095,1174.38669 189.186612,1228.43539 C126.157948,1225.33539 63.0789741,1223.68474 0.0201240945,1222.39643 C2.60607023,1172.39383 4.67885196,1122.38117 6.95287463,1072.37857 Z" fill="#D55151"></path>
                <path d="M196.370914,1066.18864 C260.526527,1064.93052 324.551333,1069.01688 388.556016,1072.66039 C389.763461,1124.55519 391.846305,1176.42987 391.52432,1228.34481 C324.108603,1228.24416 256.602328,1231.65617 189.17655,1228.43539 C192.336033,1174.34643 194.197512,1120.28766 196.370914,1066.18864 Z" fill="#242C2D"></path>
                <path d="M388.566078,1072.69058 C461.747347,1076.95812 539.490582,1083.27691 612.802658,1085.98438 C611.464405,1130.70288 616.138563,1183.68669 616.802658,1228.37556 C543.349713,1226.27143 464.977264,1228.41526 391.504196,1228.37556 C391.856367,1176.42987 389.773523,1124.55519 388.566078,1072.69058 Z" fill="#5AA7B2"></path>
                <path d="M875.720094,1083.90292 C946.496535,1079.54481 969.679491,1077.59221 1030.67562,1070.52662 C1023.73281,1126.72922 1015.58255,1182.05617 1014.8279,1238.32922 C956.800071,1234.36364 937.199203,1231.28377 869.431315,1229.39156 C801.663427,1227.49935 691.463886,1226.21104 614.931954,1223.54383 C609.226774,1178.68442 601.477487,1131.30812 607.907135,1086.23734 C687.578425,1091.23961 804.943654,1088.26104 875.720094,1083.90292 Z" fill="#EADDCD"></path>
                <path d="M1027.72744,1070.72792 C1088.60283,1061.58896 1149.57883,1050.59805 1211.38999,1052.72175 C1207.5161,1108.74318 1204.89997,1164.83506 1201.32794,1220.86656 C1138.22884,1225.89903 1075.55235,1243.59318 1011.91997,1238.22857 C1017.34341,1182.39838 1025.6446,1126.82987 1027.72744,1070.72792 Z" fill="#242C2D"></path>
                <path d="M1211.38999,1052.72175 C1275.78709,1055.41916 1339.41948,1066.5711 1403.57509,1072.12695 C1402.4582,1122.91461 1412.14796,1172.9776 1415.04583,1223.5539 C1343.78641,1223.5539 1272.54711,1215.82403 1201.31788,1220.86656 C1204.88991,1164.83506 1207.53623,1108.74318 1211.38999,1052.72175 Z" fill="#1A9E78"></path>
                <path d="M1403.58515,1072.12695 C1472.27875,1077.70292 1541.17359,1072.86169 1609.97787,1074.24058 C1609.37414,1123.87078 1610.48097,1173.49091 1610.64196,1223.1211 C1545.4399,1222.55747 1480.24789,1223.42305 1415.05589,1223.5539 C1412.13789,1172.98766 1402.48839,1122.91461 1403.58515,1072.12695 Z" fill="#EADDCD"></path>
            </g>
        </g>
    </g>
</svg>