<svg width="16" height="16" viewBox="0 0 16 16" fill="none" xmlns="http://www.w3.org/2000/svg">
<g clip-path="url(#clip0_806_60)">
<rect width="16" height="16" rx="2" fill="#1C1917"/>
<path d="M5.09816 12C5.01016 12 4.93816 11.972 4.88216 11.916C4.82616 11.86 4.79816 11.788 4.79816 11.7V3.9C4.79816 3.812 4.82616 3.74 4.88216 3.684C4.93816 3.628 5.01016 3.6 5.09816 3.6H8.27816C9.27816 3.6 10.0662 3.832 10.6422 4.296C11.2182 4.752 11.5062 5.412 11.5062 6.276C11.5062 6.86 11.3662 7.348 11.0862 7.74C10.8062 8.132 10.4302 8.424 9.95816 8.616L11.6502 11.616C11.6742 11.664 11.6862 11.708 11.6862 11.748C11.6862 11.812 11.6622 11.872 11.6142 11.928C11.5662 11.976 11.5062 12 11.4342 12H10.1022C9.95816 12 9.85016 11.964 9.77816 11.892C9.70616 11.812 9.65416 11.74 9.62216 11.676L8.15816 8.928H6.70616V11.7C6.70616 11.788 6.67816 11.86 6.62216 11.916C6.56616 11.972 6.49416 12 6.40616 12H5.09816ZM6.70616 7.404H8.24216C8.68216 7.404 9.00616 7.304 9.21416 7.104C9.43016 6.904 9.53816 6.624 9.53816 6.264C9.53816 5.904 9.43416 5.62 9.22616 5.412C9.01816 5.204 8.69016 5.1 8.24216 5.1H6.70616V7.404Z" fill="#FFDD00"/>
</g>
<defs>
<clipPath id="clip0_806_60">
<rect width="16" height="16" rx="2" fill="white"/>
</clipPath>
</defs>
</svg>
