<svg width="15" height="14" viewBox="0 0 15 14" fill="none" xmlns="http://www.w3.org/2000/svg">
<rect x="0.684204" y="0.526306" width="13.4737" height="13.4737" rx="2" fill="#2563EB"/>
<path d="M6.16992 7.17188H8.71289C9.09961 7.17188 9.42578 7.04688 9.69141 6.79688C9.96094 6.54688 10.0957 6.19141 10.0957 5.73047C10.0957 5.39062 9.95508 5.08594 9.67383 4.81641C9.39258 4.54297 9.07227 4.40625 8.71289 4.40625H5.0918V12H4.66992V3.98438H8.71289C9.18945 3.98438 9.60938 4.16211 9.97266 4.51758C10.3359 4.86914 10.5176 5.27344 10.5176 5.73047C10.5176 6.29297 10.3418 6.74414 9.99023 7.08398C9.63867 7.42383 9.21289 7.59375 8.71289 7.59375H6.16992V7.17188ZM6.16992 8.01562H8.71289C9.32227 8.01562 9.8457 7.80273 10.2832 7.37695C10.7207 6.94727 10.9395 6.39844 10.9395 5.73047C10.9395 5.15625 10.7148 4.65234 10.2656 4.21875C9.82031 3.78125 9.30273 3.5625 8.71289 3.5625H4.24805V12H3.82617V3.14062H8.71289C9.17773 3.14062 9.61328 3.25977 10.0195 3.49805C10.4297 3.73633 10.7559 4.05664 10.998 4.45898C11.2402 4.85742 11.3613 5.28125 11.3613 5.73047C11.3613 6.5 11.0996 7.14453 10.5762 7.66406C10.0566 8.17969 9.43555 8.4375 8.71289 8.4375H6.16992V8.01562ZM6.16992 8.85938H8.71289C9.25977 8.85938 9.76758 8.72461 10.2363 8.45508C10.7051 8.18555 11.0801 7.81055 11.3613 7.33008C11.6426 6.8457 11.7832 6.3125 11.7832 5.73047C11.7832 5.20312 11.6426 4.70898 11.3613 4.24805C11.084 3.7832 10.709 3.41211 10.2363 3.13477C9.76367 2.85742 9.25586 2.71875 8.71289 2.71875H3.4043V12H2.98242V2.29688H8.71289C9.32617 2.29688 9.90234 2.45508 10.4414 2.77148C10.9805 3.08398 11.4082 3.50586 11.7246 4.03711C12.0449 4.56445 12.2051 5.12891 12.2051 5.73047C12.2051 6.42578 12.0547 7.03711 11.7539 7.56445C11.457 8.0918 11.0527 8.50391 10.541 8.80078L11.6309 12H11.1855L10.1426 9C9.98633 9.0625 9.86719 9.10547 9.78516 9.12891L10.7637 12H10.3184L9.36328 9.22852C9.32812 9.23633 9.20312 9.25 8.98828 9.26953L9.89648 12H9.45117L8.55469 9.28125H8.17383L9.0293 12H8.58398L7.72266 9.28125H6.16992V8.85938ZM5.93555 12H5.51367V4.82812H8.71289C8.97461 4.82812 9.19922 4.91797 9.38672 5.09766C9.57812 5.27344 9.67383 5.48438 9.67383 5.73047C9.67383 6.41016 9.35352 6.75 8.71289 6.75H6.16992V6.32812H8.71289C8.88086 6.32812 9.01172 6.28516 9.10547 6.19922C9.20312 6.10938 9.25195 5.95312 9.25195 5.73047C9.25195 5.59375 9.19922 5.48047 9.09375 5.39062C8.99219 5.29688 8.86523 5.25 8.71289 5.25H5.93555V12Z" fill="#002D8F"/>
<path d="M6.66992 7.17188H9.21289C9.59961 7.17188 9.92578 7.04688 10.1914 6.79688C10.4609 6.54688 10.5957 6.19141 10.5957 5.73047C10.5957 5.39062 10.4551 5.08594 10.1738 4.81641C9.89258 4.54297 9.57227 4.40625 9.21289 4.40625H5.5918V12H5.16992V3.98438H9.21289C9.68945 3.98438 10.1094 4.16211 10.4727 4.51758C10.8359 4.86914 11.0176 5.27344 11.0176 5.73047C11.0176 6.29297 10.8418 6.74414 10.4902 7.08398C10.1387 7.42383 9.71289 7.59375 9.21289 7.59375H6.66992V7.17188ZM6.66992 8.01562H9.21289C9.82227 8.01562 10.3457 7.80273 10.7832 7.37695C11.2207 6.94727 11.4395 6.39844 11.4395 5.73047C11.4395 5.15625 11.2148 4.65234 10.7656 4.21875C10.3203 3.78125 9.80273 3.5625 9.21289 3.5625H4.74805V12H4.32617V3.14062H9.21289C9.67773 3.14062 10.1133 3.25977 10.5195 3.49805C10.9297 3.73633 11.2559 4.05664 11.498 4.45898C11.7402 4.85742 11.8613 5.28125 11.8613 5.73047C11.8613 6.5 11.5996 7.14453 11.0762 7.66406C10.5566 8.17969 9.93555 8.4375 9.21289 8.4375H6.66992V8.01562ZM6.66992 8.85938H9.21289C9.75977 8.85938 10.2676 8.72461 10.7363 8.45508C11.2051 8.18555 11.5801 7.81055 11.8613 7.33008C12.1426 6.8457 12.2832 6.3125 12.2832 5.73047C12.2832 5.20312 12.1426 4.70898 11.8613 4.24805C11.584 3.7832 11.209 3.41211 10.7363 3.13477C10.2637 2.85742 9.75586 2.71875 9.21289 2.71875H3.9043V12H3.48242V2.29688H9.21289C9.82617 2.29688 10.4023 2.45508 10.9414 2.77148C11.4805 3.08398 11.9082 3.50586 12.2246 4.03711C12.5449 4.56445 12.7051 5.12891 12.7051 5.73047C12.7051 6.42578 12.5547 7.03711 12.2539 7.56445C11.957 8.0918 11.5527 8.50391 11.041 8.80078L12.1309 12H11.6855L10.6426 9C10.4863 9.0625 10.3672 9.10547 10.2852 9.12891L11.2637 12H10.8184L9.86328 9.22852C9.82812 9.23633 9.70312 9.25 9.48828 9.26953L10.3965 12H9.95117L9.05469 9.28125H8.67383L9.5293 12H9.08398L8.22266 9.28125H6.66992V8.85938ZM6.43555 12H6.01367V4.82812H9.21289C9.47461 4.82812 9.69922 4.91797 9.88672 5.09766C10.0781 5.27344 10.1738 5.48438 10.1738 5.73047C10.1738 6.41016 9.85352 6.75 9.21289 6.75H6.66992V6.32812H9.21289C9.38086 6.32812 9.51172 6.28516 9.60547 6.19922C9.70312 6.10938 9.75195 5.95312 9.75195 5.73047C9.75195 5.59375 9.69922 5.48047 9.59375 5.39062C9.49219 5.29688 9.36523 5.25 9.21289 5.25H6.43555V12Z" fill="white"/>
</svg>
