<svg width="16" height="16" viewBox="0 0 16 16" fill="none" xmlns="http://www.w3.org/2000/svg">
<rect width="16" height="16" fill="#080808"/>
<path d="M5.7 12V4.8H8.48C8.55 4.8 8.62833 4.80333 8.715 4.81C8.805 4.81333 8.895 4.82333 8.985 4.84C9.36167 4.89667 9.68 5.02833 9.94 5.235C10.2033 5.43833 10.4017 5.695 10.535 6.005C10.6717 6.315 10.74 6.65833 10.74 7.035C10.74 7.57833 10.5967 8.05 10.31 8.45C10.0233 8.85 9.61333 9.10167 9.08 9.205L8.825 9.265H6.435V12H5.7ZM10.06 12L8.64 9.07L9.345 8.8L10.905 12H10.06ZM6.435 8.565H8.46C8.52 8.565 8.59 8.56167 8.67 8.555C8.75 8.54833 8.82833 8.53667 8.905 8.52C9.15167 8.46667 9.35333 8.365 9.51 8.215C9.67 8.065 9.78833 7.88667 9.865 7.68C9.945 7.47333 9.985 7.25833 9.985 7.035C9.985 6.81167 9.945 6.59667 9.865 6.39C9.78833 6.18 9.67 6 9.51 5.85C9.35333 5.7 9.15167 5.59833 8.905 5.545C8.82833 5.52833 8.75 5.51833 8.67 5.515C8.59 5.50833 8.52 5.505 8.46 5.505H6.435V8.565Z" fill="white"/>
</svg>
