<svg width="16" height="16" viewBox="0 0 16 16" fill="none" xmlns="http://www.w3.org/2000/svg">
<g clip-path="url(#clip0_806_60)">
<rect width="16" height="16" rx="2" fill="#1C1917"/>
<path d="M4.75123 12V11.472C5.01523 11.456 5.20323 11.4 5.31523 11.304C5.43523 11.208 5.51123 11.064 5.54323 10.872C5.57523 10.68 5.59123 10.436 5.59123 10.14V5.148C5.59123 4.972 5.59523 4.804 5.60323 4.644C5.61123 4.476 5.61923 4.332 5.62723 4.212C5.49123 4.22 5.34323 4.228 5.18323 4.236C5.02323 4.244 4.87923 4.252 4.75123 4.26V3.6C5.23923 3.592 5.73123 3.588 6.22723 3.588C6.72323 3.58 7.22323 3.58 7.72723 3.588C8.47923 3.588 9.09923 3.676 9.58723 3.852C10.0752 4.02 10.4392 4.272 10.6792 4.608C10.9272 4.944 11.0472 5.368 11.0392 5.88C11.0472 6.2 10.9832 6.52 10.8472 6.84C10.7112 7.152 10.4832 7.432 10.1632 7.68C9.84323 7.928 9.40323 8.116 8.84323 8.244C9.00323 8.34 9.14723 8.472 9.27523 8.64C9.40323 8.808 9.53523 8.996 9.67123 9.204L10.4032 10.332C10.5552 10.572 10.6952 10.776 10.8232 10.944C10.9512 11.112 11.0952 11.244 11.2552 11.34C11.4152 11.428 11.6072 11.472 11.8312 11.472V12H10.1632C9.95523 11.824 9.77523 11.636 9.62323 11.436C9.47923 11.228 9.32323 10.996 9.15523 10.74L8.32723 9.396C8.22323 9.236 8.11123 9.064 7.99123 8.88C7.87923 8.696 7.75523 8.54 7.61923 8.412C7.49123 8.412 7.36323 8.412 7.23523 8.412C7.11523 8.412 6.99123 8.412 6.86323 8.412V10.392C6.86323 10.608 6.85923 10.804 6.85123 10.98C6.85123 11.148 6.84323 11.284 6.82723 11.388C6.92323 11.38 7.02323 11.376 7.12723 11.376C7.23923 11.368 7.34723 11.36 7.45123 11.352C7.56323 11.344 7.65923 11.34 7.73923 11.34V12H4.75123ZM7.55923 7.824C7.99923 7.816 8.37523 7.748 8.68723 7.62C8.99923 7.484 9.23923 7.28 9.40723 7.008C9.57523 6.728 9.65923 6.368 9.65923 5.928C9.65923 5.6 9.61123 5.324 9.51523 5.1C9.41923 4.876 9.28323 4.696 9.10723 4.56C8.93123 4.416 8.71923 4.316 8.47123 4.26C8.23123 4.196 7.97123 4.164 7.69123 4.164C7.43523 4.164 7.24723 4.212 7.12723 4.308C7.01523 4.404 6.94323 4.544 6.91123 4.728C6.87923 4.912 6.86323 5.148 6.86323 5.436V7.788C6.98323 7.796 7.09523 7.808 7.19923 7.824C7.31123 7.832 7.43123 7.832 7.55923 7.824Z" fill="#F5D1B8"/>
</g>
<defs>
<clipPath id="clip0_806_60">
<rect width="16" height="16" rx="2" fill="white"/>
</clipPath>
</defs>
</svg>
