<svg width="888" height="773" viewBox="0 0 888 773" fill="none" xmlns="http://www.w3.org/2000/svg">
<path d="M887.772 763.25L252.263 772.831L0 728.121H393.817L887.772 763.25Z" fill="#E6E6E6"/>
<path d="M731.822 203.32C787.968 203.32 833.483 157.806 833.483 101.66C833.483 45.5148 787.968 0 731.822 0C675.677 0 630.162 45.5148 630.162 101.66C630.162 157.806 675.677 203.32 731.822 203.32Z" fill="#FF6584"/>
<path d="M179.84 733.435C179.84 733.435 181.327 702.276 211.812 705.898Z" fill="#3F3D56"/>
<path d="M171.227 703.784C179.653 703.784 186.484 696.953 186.484 688.526C186.484 680.1 179.653 673.269 171.227 673.269C162.801 673.269 155.97 680.1 155.97 688.526C155.97 696.953 162.801 703.784 171.227 703.784Z" fill="#3B82F6"/>
<path d="M173.051 714.219H168.744V744.366H173.051V714.219Z" fill="#3F3D56"/>
<path d="M682.287 738.757C682.287 738.757 683.774 707.599 714.258 711.22Z" fill="#3F3D56"/>
<path d="M673.673 709.106C682.099 709.106 688.93 702.275 688.93 693.849C688.93 685.423 682.099 678.592 673.673 678.592C665.247 678.592 658.416 685.423 658.416 693.849C658.416 702.275 665.247 709.106 673.673 709.106Z" fill="#3B82F6"/>
<path d="M675.498 719.541H671.191V749.688H675.498V719.541Z" fill="#3F3D56"/>
<path d="M755.738 744.08C755.738 744.08 757.225 712.921 787.709 716.543Z" fill="#3F3D56"/>
<path d="M747.124 714.429C755.551 714.429 762.381 707.598 762.381 699.171C762.381 690.745 755.551 683.914 747.124 683.914C738.698 683.914 731.867 690.745 731.867 699.171C731.867 707.598 738.698 714.429 747.124 714.429Z" fill="#3B82F6"/>
<path d="M748.948 724.864H744.642V755.011H748.948V724.864Z" fill="#3F3D56"/>
<path d="M300.129 718.532C300.129 718.532 301.616 687.373 332.101 690.995Z" fill="#3F3D56"/>
<path d="M291.516 688.88C299.942 688.88 306.773 682.05 306.773 673.623C306.773 665.197 299.942 658.366 291.516 658.366C283.09 658.366 276.259 665.197 276.259 673.623C276.259 682.05 283.09 688.88 291.516 688.88Z" fill="#3B82F6"/>
<path d="M293.34 699.315H289.033V729.462H293.34V699.315Z" fill="#3F3D56"/>
<path d="M73.3896 723.854C73.3896 723.854 74.8766 692.696 105.361 696.317Z" fill="#3F3D56"/>
<path d="M64.7762 694.203C73.2024 694.203 80.0333 687.372 80.0333 678.946C80.0333 670.52 73.2024 663.689 64.7762 663.689C56.3499 663.689 49.519 670.52 49.519 678.946C49.519 687.372 56.3499 694.203 64.7762 694.203Z" fill="#3B82F6"/>
<path d="M66.6007 704.638H62.2939V734.785H66.6007V704.638Z" fill="#3F3D56"/>
<path d="M442.277 669.71C534.082 669.71 608.505 595.287 608.505 503.482C608.505 411.677 534.082 337.254 442.277 337.254C350.472 337.254 276.049 411.677 276.049 503.482C276.049 595.287 350.472 669.71 442.277 669.71Z" fill="#3F3D56"/>
<path d="M337.626 516.826C341.754 511.883 346.917 507.908 352.751 505.18C358.584 502.451 364.946 501.037 371.385 501.037C377.825 501.037 384.186 502.451 390.02 505.18C395.853 507.908 401.016 511.883 405.145 516.826C412.209 510.082 417.092 501.377 419.163 491.833C421.235 482.289 420.401 472.343 416.768 463.278C413.136 454.212 406.872 446.442 398.783 440.969C390.694 435.496 381.152 432.571 371.385 432.571C361.619 432.571 352.077 435.496 343.988 440.969C335.899 446.442 329.635 454.212 326.002 463.278C322.37 472.343 321.536 482.289 323.607 491.833C325.679 501.377 330.562 510.082 337.626 516.826V516.826Z" fill="white"/>
<path d="M469.631 516.826C473.759 511.883 478.922 507.908 484.756 505.179C490.589 502.451 496.95 501.037 503.39 501.037C509.83 501.037 516.191 502.451 522.025 505.179C527.858 507.908 533.021 511.883 537.15 516.826C544.214 510.082 549.096 501.377 551.168 491.833C553.24 482.289 552.406 472.343 548.773 463.278C545.141 454.212 538.876 446.442 530.788 440.969C522.699 435.496 513.156 432.571 503.39 432.571C493.624 432.571 484.081 435.496 475.993 440.969C467.904 446.442 461.64 454.212 458.007 463.278C454.375 472.343 453.54 482.289 455.612 491.833C457.684 501.377 462.567 510.082 469.631 516.826Z" fill="white"/>
<path d="M354.708 481.632C363.996 481.632 371.525 474.102 371.525 464.814C371.525 455.526 363.996 447.996 354.708 447.996C345.419 447.996 337.89 455.526 337.89 464.814C337.89 474.102 345.419 481.632 354.708 481.632Z" fill="#3F3D56"/>
<path d="M486.708 481.632C495.996 481.632 503.525 474.102 503.525 464.814C503.525 455.526 495.996 447.996 486.708 447.996C477.419 447.996 469.89 455.526 469.89 464.814C469.89 474.102 477.419 481.632 486.708 481.632Z" fill="#3F3D56"/>
<path d="M322.495 564.595C333.295 564.595 342.051 555.84 342.051 545.039C342.051 534.238 333.295 525.483 322.495 525.483C311.694 525.483 302.938 534.238 302.938 545.039C302.938 555.84 311.694 564.595 322.495 564.595Z" fill="#FF6584"/>
<path d="M547.392 564.595C558.192 564.595 566.948 555.84 566.948 545.039C566.948 534.238 558.192 525.483 547.392 525.483C536.591 525.483 527.835 534.238 527.835 545.039C527.835 555.84 536.591 564.595 547.392 564.595Z" fill="#FF6584"/>
<path d="M434.943 505.926L420.276 569.484L444.721 545.039L434.943 505.926Z" fill="#FF6584"/>
<path d="M510.307 750.38L493.655 736.404L494.043 750.38H488.871L488.458 735.602L465.975 750.38H456.563L488.29 729.526L487.061 685.737L486.143 652.666L491.302 652.524L492.233 685.737L493.461 729.487L518.348 750.38H510.307Z" fill="#3F3D56"/>
<path d="M432.076 750.38L415.424 736.404L415.812 750.38H410.654L410.24 735.602L387.757 750.38H378.345L410.059 729.526L408.831 685.737L407.913 652.666L413.084 652.524L414.015 685.737L415.23 729.487L440.118 750.38H432.076Z" fill="#3F3D56"/>
<path d="M444.722 325.031C440.16 325.031 436.137 328.574 433.447 334.016C431.076 325.833 426.094 320.142 420.276 320.142C419.881 320.181 419.489 320.247 419.102 320.339C416.866 311.602 411.669 305.475 405.609 305.475C397.509 305.475 390.942 316.419 390.942 329.92C390.942 343.421 397.509 354.366 405.609 354.366C406.004 354.326 406.397 354.26 406.783 354.168C409.02 362.905 414.217 369.033 420.276 369.033C424.837 369.033 428.861 365.49 431.551 360.048C433.922 368.231 438.904 373.922 444.722 373.922C452.822 373.922 459.389 362.977 459.389 349.476C459.389 335.976 452.822 325.031 444.722 325.031Z" fill="#3F3D56"/>
<path d="M286.25 566.475C279.83 566.475 273.473 565.21 267.541 562.754C261.609 560.297 256.22 556.695 251.68 552.155C247.14 547.615 243.538 542.226 241.081 536.294C238.624 530.362 237.36 524.005 237.36 517.584V493.139C237.36 480.172 242.511 467.737 251.68 458.568C260.848 449.399 273.284 444.248 286.25 444.248V444.248V566.475Z" fill="#3B82F6"/>
<path d="M598.304 444.248C604.724 444.248 611.082 445.513 617.013 447.97C622.945 450.427 628.335 454.028 632.875 458.568C637.415 463.108 641.016 468.498 643.473 474.429C645.93 480.361 647.194 486.719 647.194 493.139V517.584C647.194 524.005 645.93 530.362 643.473 536.294C641.016 542.226 637.415 547.615 632.875 552.155C628.335 556.695 622.945 560.296 617.013 562.753C611.082 565.21 604.724 566.475 598.304 566.475V566.475V444.248H598.304Z" fill="#3B82F6"/>
<path d="M623.923 496.98H616.166C616.166 398.603 536.13 318.567 437.752 318.567C339.375 318.567 259.338 398.603 259.338 496.98H251.581C251.581 394.325 335.097 310.81 437.752 310.81C540.408 310.81 623.923 394.325 623.923 496.98Z" fill="#3B82F6"/>
<path d="M171.547 347.473L171.549 347.47L167.904 345.953L152.528 339.452L147.016 337.123L146.593 338.19L139.189 356.884L160.026 365.704L160.136 365.803L158.731 369.114C158.539 369.416 158.375 369.736 158.242 370.069C157.258 372.553 159.116 375.023 160.872 375.718C162.628 376.414 164.849 374.965 165.833 372.481C166.803 370.031 165.855 366.919 164.143 366.167L164.145 366.164L160.501 364.647L148.034 359.8L155.157 341.815L154.101 341.397L146.976 359.389L145.434 358.79L152.588 340.728L152.776 340.807L167.43 347.01L167.539 347.109L166.135 350.419C165.943 350.722 165.779 351.042 165.646 351.375C164.662 353.858 166.52 356.329 168.276 357.024C170.032 357.72 172.253 356.271 173.237 353.787C174.207 351.337 173.259 348.225 171.547 347.473Z" fill="#3F3D56"/>
<path d="M243.667 393.367C236.103 389.043 237.617 379.552 237.617 379.552C237.427 373.387 232.333 374.26 232.333 374.26L230.479 374.683C229.618 374.283 228.67 374.108 227.723 374.173L224.902 374.648C231.324 376.156 230.796 381.528 230.796 381.528L231.696 387.809L214.87 381.021L216.802 376.466C217.069 376.046 217.297 375.602 217.482 375.139C218.849 371.69 216.268 368.259 213.829 367.293C211.39 366.327 208.305 368.34 206.939 371.789C205.592 375.192 206.908 379.514 209.285 380.558L209.283 380.562L214.345 382.67L214.383 382.551L243.667 393.367ZM235.123 382.331L235.663 388.343C233.757 385.67 232.862 382.408 233.137 379.137C233.092 377.973 232.7 376.85 232.01 375.911C233.07 376.591 233.922 377.55 234.471 378.683C235.021 379.816 235.246 381.078 235.123 382.331V382.331Z" fill="#3F3D56"/>
<path d="M115.319 304.456L115.321 304.452L110.259 302.344L89.1047 294.121L94.444 289.37C95.4885 287.978 97.0309 287.043 98.7487 286.762C100.467 286.48 102.227 286.874 103.661 287.86L102.004 285.398C102.004 285.398 98.8891 281.274 94.5289 285.637C94.5289 285.637 89.1341 293.59 80.6602 291.563L109.6 303.812L109.752 303.95L107.802 308.548C107.535 308.969 107.307 309.413 107.122 309.875C105.756 313.324 108.336 316.755 110.775 317.722C113.214 318.688 116.299 316.674 117.665 313.225C119.013 309.823 117.696 305.5 115.319 304.456Z" fill="#3F3D56"/>
<path d="M192.766 277.541L190.816 282.14C190.549 282.56 190.321 283.004 190.135 283.467C188.769 286.916 191.349 290.347 193.789 291.313C196.228 292.279 199.313 290.266 200.679 286.817C202.026 283.414 200.709 279.092 198.332 278.048L198.335 278.044L193.273 275.936L175.958 269.205L185.851 244.225L184.385 243.644L174.488 268.633L172.347 267.801L182.282 242.714L182.544 242.825L202.897 251.439L203.049 251.577L201.099 256.175C200.832 256.596 200.604 257.04 200.419 257.502C199.052 260.952 201.633 264.383 204.072 265.349C206.511 266.315 209.596 264.302 210.962 260.852C212.31 257.45 210.993 253.128 208.616 252.083L208.618 252.079L203.556 249.971L182.871 241.227L182.87 241.227L182.2 240.943L174.544 237.707L163.674 265.155L192.614 277.404L192.766 277.541Z" fill="#3F3D56"/>
<path d="M101.053 136.972L101.057 136.965L92.3437 133.336L55.9275 119.18L65.1186 111.003C65.1186 111.003 71.2323 102.52 80.9848 108.403L78.1328 104.164C78.1328 104.164 72.7706 97.0655 65.265 104.576C65.265 104.576 55.9781 118.267 41.3906 114.777L91.2095 135.863L91.4711 136.1L88.114 144.016C87.6544 144.74 87.2623 145.505 86.9426 146.3C84.5909 152.238 89.0325 158.145 93.2314 159.808C97.4303 161.471 102.741 158.005 105.093 152.067C107.412 146.21 105.145 138.77 101.053 136.972Z" fill="#3F3D56"/>
<path d="M127.793 255.885C109.709 245.545 113.328 222.855 113.328 222.855C112.873 208.114 100.694 210.201 100.694 210.201L96.2614 211.212C94.2024 210.257 91.9351 209.837 89.6705 209.993L82.928 211.128C98.281 214.736 97.0196 227.579 97.0196 227.579L99.1705 242.596L58.9415 226.367L63.5605 215.476C64.1988 214.471 64.7434 213.409 65.1875 212.303C68.4538 204.056 62.2847 195.853 56.4528 193.543C50.6209 191.233 43.2454 196.047 39.979 204.294C36.7572 212.428 39.9058 222.763 45.5889 225.26L45.5841 225.27L57.6858 230.309L57.776 230.024L127.793 255.885ZM107.364 229.499L108.659 243.923C101.063 233.84 102.616 221.861 102.616 221.861C102.509 219.079 101.57 216.393 99.9216 214.15C108.647 219.371 107.364 229.499 107.364 229.499H107.364Z" fill="#3F3D56"/>
</svg>
