<svg width="744" height="417" viewBox="0 0 744 417" fill="none" xmlns="http://www.w3.org/2000/svg">
<path d="M515.786 132.155H501.65C501.197 132.157 500.759 131.989 500.423 131.684C500.087 131.379 499.877 130.96 499.834 130.508L497.005 101.507H520.431L517.602 130.508C517.559 130.96 517.349 131.379 517.013 131.684C516.677 131.989 516.239 132.157 515.786 132.155V132.155Z" fill="#3F3D56"/>
<path d="M520.393 105.155H497.042C496.558 105.155 496.095 104.962 495.753 104.62C495.411 104.278 495.218 103.815 495.218 103.331V98.9525C495.218 98.4689 495.411 98.0052 495.753 97.6632C496.095 97.3212 496.558 97.1288 497.042 97.1282H520.393C520.877 97.1288 521.341 97.3212 521.683 97.6632C522.025 98.0052 522.217 98.4689 522.218 98.9525V103.331C522.217 103.815 522.025 104.278 521.683 104.62C521.341 104.962 520.877 105.155 520.393 105.155V105.155Z" fill="#CCCCCC"/>
<path d="M350.4 101H294.4V84C312.096 71.6851 327.775 72.7556 348.4 85L350.4 101Z" fill="#3B82F6"/>
<path d="M281.433 402.957L269.173 402.956L267.34 355.668L281.435 355.669L281.433 402.957Z" fill="#FFB8B8"/>
<path d="M284.559 414.841L245.029 414.839V414.339C245.029 412.319 245.427 410.318 246.2 408.451C246.973 406.584 248.107 404.888 249.535 403.459C250.964 402.031 252.66 400.897 254.527 400.124C256.394 399.351 258.395 398.953 260.415 398.953H260.416L284.56 398.954L284.559 414.841Z" fill="#2F2E41"/>
<path d="M350.486 402.957L362.746 402.956L364.579 355.668L350.484 355.669L350.486 402.957Z" fill="#FFB8B8"/>
<path d="M347.359 398.954L371.503 398.953H371.504C373.525 398.953 375.526 399.351 377.392 400.124C379.259 400.897 380.955 402.031 382.384 403.459C383.813 404.888 384.946 406.584 385.719 408.451C386.493 410.318 386.891 412.319 386.891 414.339V414.839L347.36 414.841L347.359 398.954Z" fill="#2F2E41"/>
<path d="M350.809 396.896C349.786 396.893 348.794 396.543 347.996 395.903C347.198 395.263 346.64 394.371 346.415 393.374L316.028 260.834C315.961 260.498 315.778 260.195 315.51 259.981C315.242 259.766 314.907 259.653 314.564 259.661H314.556C314.212 259.654 313.876 259.77 313.609 259.988C313.342 260.205 313.16 260.51 313.096 260.849L285.192 392.495C284.974 393.502 284.419 394.404 283.618 395.053C282.818 395.701 281.82 396.057 280.789 396.061H267.497C266.883 396.061 266.276 395.936 265.713 395.693C265.15 395.45 264.643 395.094 264.222 394.648C263.801 394.201 263.476 393.674 263.267 393.097C263.058 392.521 262.968 391.908 263.004 391.295L272.905 224.44L276.889 223.261L276.964 223.262L355.222 223.947L371.89 390.619C371.948 391.213 371.887 391.813 371.711 392.384C371.535 392.955 371.247 393.485 370.863 393.943C370.48 394.401 370.01 394.778 369.479 395.052C368.948 395.327 368.369 395.493 367.773 395.541L351.169 396.881C351.048 396.891 350.928 396.896 350.809 396.896Z" fill="#2F2E41"/>
<path d="M318.491 70.5319C332.056 70.5319 343.052 59.5356 343.052 45.9709C343.052 32.4062 332.056 21.4099 318.491 21.4099C304.926 21.4099 293.93 32.4062 293.93 45.9709C293.93 59.5356 304.926 70.5319 318.491 70.5319Z" fill="#FFB8B8"/>
<path d="M303.445 242.734C299.136 242.787 294.844 242.183 290.718 240.943C287.047 239.836 283.642 237.99 280.712 235.517C277.782 233.045 275.388 230 273.679 226.568C273.138 225.535 273.018 224.333 273.344 223.213C276.053 213.968 289.143 165.913 280.791 127.71C279.612 122.403 279.514 116.913 280.503 111.568C281.492 106.222 283.547 101.13 286.546 96.5962C289.476 92.0976 293.281 88.2351 297.736 85.239C302.19 82.2429 307.202 80.1747 312.473 79.1577L312.474 79.1567C313.859 78.8862 315.252 78.6645 316.613 78.4966C322.439 77.7794 328.353 78.3589 333.929 80.1937C339.506 82.0285 344.608 85.0731 348.871 89.1098C353.26 93.2258 356.685 98.2613 358.9 103.856C361.116 109.45 362.067 115.465 361.686 121.47L355.267 224.474C355.223 225.246 354.979 225.994 354.558 226.643C354.138 227.292 353.556 227.821 352.869 228.177C345.477 232.051 323.27 242.734 303.445 242.734Z" fill="#3F3D56"/>
<path d="M346.237 27.8917C343.686 21.4798 339.013 16.1369 332.997 12.7548C326.982 9.37274 319.989 8.15611 313.185 9.30801L320.929 15.5658C311.307 15.8898 301.179 15.2009 294.309 21.9451C296.496 21.8845 299.363 26.5625 301.55 26.5018C297.461 26.5827 293.753 29.4556 291.947 33.125C290.274 36.8947 289.883 41.1088 290.833 45.1221C291.641 49.1313 297.801 58.5237 299.459 62.2622C299.174 52.492 318.409 29.1878 327.801 31.6199C323.029 33.3904 318.888 36.5343 315.901 40.6551C322.291 37.4304 329.517 36.2479 336.602 37.2681C338.219 37.639 339.888 37.7324 341.537 37.5443C342.547 37.3444 343.49 36.8888 344.274 36.2209C345.058 35.553 345.658 34.6952 346.016 33.7294C346.375 32.7636 346.479 31.7221 346.32 30.7043C346.162 29.6865 345.744 28.7264 345.109 27.9158L346.237 27.8917Z" fill="#2F2E41"/>
<path d="M301.753 236.549C301.132 236.548 300.519 236.418 299.951 236.168L253.35 215.828C252.36 215.404 251.557 214.636 251.088 213.667C250.619 212.697 250.515 211.591 250.797 210.551L281.647 94.0122C282.22 91.8437 283.221 89.8115 284.589 88.0343C285.958 86.2572 287.667 84.7709 289.617 83.6625C291.567 82.554 293.719 81.8457 295.946 81.5789C298.173 81.3122 300.431 81.4923 302.588 82.1089L314.923 85.6294L306.239 232.31C306.195 233.034 305.976 233.736 305.603 234.357C305.229 234.979 304.711 235.501 304.093 235.88C303.39 236.315 302.58 236.547 301.753 236.549V236.549Z" fill="#3B82F6"/>
<path d="M388 210.55L385.95 202.82L382.98 191.58L381.55 186.19L378.581 174.98L357.15 94.0101C356.579 91.8407 355.579 89.8073 354.211 88.0292C352.843 86.2512 351.134 84.7644 349.183 83.6559C347.233 82.5475 345.081 81.8398 342.853 81.5743C340.625 81.3088 338.367 81.491 336.21 82.11L323.88 85.63L329.99 188.8L330.621 199.57L331.021 206.36V206.37L331.66 217.08L332.561 232.31C332.634 233.454 333.138 234.527 333.971 235.314C334.804 236.1 335.904 236.542 337.05 236.55C337.67 236.546 338.282 236.417 338.851 236.17L385.45 215.83C386.441 215.406 387.245 214.638 387.713 213.667C388.182 212.697 388.284 211.59 388 210.55V210.55Z" fill="#3B82F6"/>
<path d="M381.55 186.19L330.621 199.57L329.99 188.8L378.581 174.98L381.55 186.19Z" fill="#CCCCCC"/>
<path d="M385.95 202.82L331.66 217.08L331.021 206.37V206.36L382.981 191.58L385.95 202.82Z" fill="#CCCCCC"/>
<path d="M308.181 191.12L307.55 201.69L257.601 186.81L260.53 175.75L308.181 191.12Z" fill="#CCCCCC"/>
<path d="M307.14 208.65L256.17 192.2L253.24 203.29L306.52 219.16L307.14 208.65Z" fill="#CCCCCC"/>
<path d="M257.059 219.704C258.579 219.307 259.993 218.582 261.202 217.58C262.411 216.578 263.386 215.323 264.057 213.903C264.729 212.483 265.081 210.934 265.089 209.363C265.096 207.793 264.76 206.24 264.103 204.813L288.065 129.588L271.073 126.029L249.104 199.782C246.781 201.045 245.002 203.117 244.105 205.604C243.207 208.091 243.252 210.821 244.233 213.276C245.214 215.732 247.061 217.743 249.425 218.927C251.789 220.112 254.505 220.388 257.059 219.704V219.704Z" fill="#FFB8B8"/>
<path d="M288.729 92.6058C293.608 93.1035 296.353 98.5893 295.14 105.42L289.319 138.198C288.882 140.655 286.86 142.601 285.179 142.181L265.489 137.259C263.974 136.88 263.416 134.727 264.274 132.574L276.095 102.92C278.662 96.4802 283.999 92.1232 288.729 92.6058Z" fill="#3F3D56"/>
<path d="M318.4 5.64114e-10C326.713 0.000891585 334.699 3.23708 340.667 9.0233C346.635 14.8095 350.117 22.6914 350.375 31H356.4C356.931 31 357.44 31.2107 357.815 31.5858C358.19 31.9609 358.4 32.4696 358.4 33V41C358.4 41.5304 358.19 42.0391 357.815 42.4142C357.44 42.7893 356.931 43 356.4 43H288.4C287.87 43 287.361 42.7893 286.986 42.4142C286.611 42.0391 286.4 41.5304 286.4 41V31.9999C286.4 27.7976 287.228 23.6365 288.836 19.7541C290.444 15.8716 292.801 12.344 295.773 9.37251C298.744 6.40104 302.272 4.04393 306.155 2.43579C310.037 0.827653 314.198 -2.49508e-05 318.4 5.64114e-10Z" fill="#3B82F6"/>
<path d="M322.224 197.805H308.089C307.635 197.806 307.197 197.638 306.861 197.334C306.525 197.029 306.316 196.61 306.273 196.158L303.443 167.156H326.87L324.04 196.158C323.998 196.609 323.788 197.029 323.452 197.333C323.116 197.638 322.678 197.806 322.224 197.805V197.805Z" fill="#E6E6E6"/>
<path d="M326.832 170.805H303.481C302.997 170.804 302.533 170.612 302.191 170.27C301.849 169.928 301.657 169.464 301.656 168.981V164.602C301.657 164.118 301.849 163.655 302.191 163.313C302.533 162.971 302.997 162.778 303.481 162.778H326.832C327.316 162.778 327.779 162.971 328.121 163.313C328.463 163.655 328.656 164.118 328.656 164.602V168.981C328.656 169.464 328.463 169.928 328.121 170.27C327.779 170.612 327.316 170.804 326.832 170.805V170.805Z" fill="#CCCCCC"/>
<path d="M315.46 182.251C316.009 182.315 316.553 182.422 317.086 182.571L354.732 150.287L352.532 138.441L369.974 132.784L375.908 153.375C376.387 155.038 376.314 156.813 375.699 158.431C375.084 160.049 373.961 161.425 372.498 162.35L324.821 192.521C324.855 194.652 324.239 196.743 323.055 198.516C321.872 200.289 320.176 201.659 318.195 202.445C316.213 203.231 314.039 203.395 311.962 202.915C309.885 202.435 308.004 201.334 306.568 199.759C305.132 198.184 304.209 196.208 303.923 194.096C303.637 191.984 304.001 189.834 304.966 187.934C305.931 186.033 307.452 184.471 309.327 183.456C311.201 182.441 313.341 182.021 315.46 182.252V182.251Z" fill="#FFB8B8"/>
<path d="M354.83 95.3133C360.042 93.8544 365.249 97.8212 366.994 104.579L375.368 137.009C375.995 139.44 374.776 142.024 372.872 142.298L350.565 145.506C348.849 145.753 347.337 143.993 347.274 141.675L346.408 109.762C346.219 102.831 349.777 96.7278 354.83 95.3133Z" fill="#3F3D56"/>
<path d="M654.663 302.47C644.392 288.809 636.273 273.656 630.588 257.538C630.258 256.574 630.282 255.524 630.654 254.576C631.026 253.628 631.722 252.842 632.619 252.359L667.765 233.527C668.333 233.22 668.964 233.047 669.61 233.021C670.255 232.995 670.899 233.116 671.49 233.376C672.093 233.638 672.628 234.034 673.054 234.534C673.481 235.033 673.788 235.624 673.951 236.26C678.042 251.792 685.731 266.142 696.397 278.151C696.836 278.64 697.158 279.222 697.338 279.854C697.518 280.486 697.551 281.151 697.435 281.797C697.324 282.434 697.069 283.037 696.689 283.56C696.31 284.083 695.816 284.512 695.246 284.815L660.101 303.647C659.202 304.126 658.162 304.271 657.166 304.056C656.17 303.84 655.283 303.278 654.663 302.47V302.47Z" fill="#CCCCCC"/>
<path d="M657.062 300.668C657.251 300.904 657.516 301.066 657.812 301.128C658.108 301.189 658.416 301.145 658.684 301.003L693.829 282.171C694 282.082 694.147 281.955 694.261 281.799C694.374 281.643 694.45 281.464 694.482 281.274C694.518 281.074 694.508 280.867 694.452 280.672C694.395 280.476 694.294 280.296 694.157 280.146C683.177 267.784 675.261 253.01 671.05 237.021C671.001 236.823 670.907 236.64 670.776 236.485C670.644 236.329 670.479 236.207 670.292 236.126C670.116 236.047 669.924 236.01 669.731 236.018C669.539 236.026 669.35 236.079 669.181 236.172L634.037 255.003C633.77 255.147 633.563 255.38 633.45 255.66C633.336 255.941 633.325 256.252 633.417 256.54C639.001 272.37 646.975 287.251 657.062 300.668V300.668Z" fill="white"/>
<path d="M670.072 260.402L650.93 268.852C650.203 269.172 649.377 269.191 648.635 268.903C647.894 268.616 647.296 268.046 646.975 267.319L646.501 266.246C646.181 265.518 646.162 264.693 646.449 263.951C646.737 263.209 647.307 262.612 648.034 262.29L667.176 253.84C667.904 253.52 668.729 253.502 669.471 253.789C670.212 254.076 670.81 254.646 671.132 255.373L671.605 256.446C671.925 257.174 671.944 257.999 671.657 258.741C671.369 259.483 670.799 260.08 670.072 260.402V260.402Z" fill="#CCCCCC"/>
<path d="M677.072 273.402L657.93 281.852C657.203 282.172 656.377 282.191 655.635 281.903C654.894 281.616 654.296 281.046 653.975 280.319L653.501 279.246C653.181 278.518 653.162 277.693 653.449 276.951C653.737 276.209 654.307 275.612 655.034 275.29L674.176 266.84C674.904 266.52 675.729 266.502 676.471 266.789C677.212 267.076 677.81 267.646 678.132 268.373L678.605 269.446C678.925 270.174 678.944 270.999 678.657 271.741C678.369 272.483 677.799 273.08 677.072 273.402V273.402Z" fill="#CCCCCC"/>
<path d="M632.179 262.57C630.858 261.72 629.739 260.591 628.902 259.262C628.065 257.934 627.529 256.438 627.332 254.88C627.136 253.321 627.283 251.739 627.764 250.244C628.245 248.749 629.048 247.378 630.116 246.227L622.044 131.669L645.297 133.924L645.936 246.111C647.751 248.034 648.797 250.555 648.877 253.198C648.956 255.841 648.064 258.422 646.368 260.451C644.672 262.479 642.291 263.816 639.676 264.206C637.061 264.597 634.393 264.014 632.179 262.57L632.179 262.57Z" fill="#A0616A"/>
<path d="M627.307 170.162C626.763 169.77 626.313 169.261 625.992 168.673C625.67 168.084 625.484 167.431 625.449 166.761L623.745 135.885C623.576 132.826 624.546 129.813 626.468 127.427C628.389 125.04 631.126 123.45 634.15 122.962C637.175 122.474 640.273 123.124 642.847 124.785C645.422 126.446 647.29 129.001 648.091 131.958L655.576 159.563C655.887 160.715 655.728 161.943 655.135 162.978C654.541 164.013 653.561 164.77 652.41 165.084L631.12 170.856C630.473 171.033 629.794 171.062 629.135 170.942C628.475 170.822 627.85 170.555 627.307 170.162V170.162Z" fill="#3F3D56"/>
<path d="M587.676 403.408H575.416L569.584 356.12H587.678L587.676 403.408Z" fill="#A0616A"/>
<path d="M566.659 399.905H590.303V414.791H551.772C551.772 412.837 552.158 410.901 552.906 409.095C553.654 407.288 554.75 405.647 556.133 404.265C557.515 402.882 559.156 401.786 560.962 401.038C562.769 400.29 564.704 399.905 566.659 399.905V399.905Z" fill="#2F2E41"/>
<path d="M633.676 403.408H621.416L615.584 356.12H633.678L633.676 403.408Z" fill="#A0616A"/>
<path d="M612.659 399.905H636.303V414.791H597.772C597.772 412.837 598.158 410.901 598.906 409.095C599.654 407.288 600.75 405.647 602.133 404.265C603.515 402.882 605.156 401.786 606.962 401.038C608.769 400.29 610.704 399.905 612.659 399.905Z" fill="#2F2E41"/>
<path d="M587.097 379.585L573.601 378.942C572.451 378.887 571.366 378.394 570.569 377.564C569.771 376.734 569.323 375.63 569.315 374.479C565.757 319.56 560.829 260.672 568.373 237.922C568.368 237.274 568.504 236.633 568.77 236.042C569.037 235.451 569.428 234.924 569.917 234.498C570.405 234.072 570.98 233.757 571.602 233.574C572.224 233.391 572.878 233.344 573.519 233.437L627.513 241.275C628.58 241.424 629.557 241.953 630.265 242.765C630.973 243.577 631.364 244.617 631.366 245.695C638.26 272.631 638.572 321.477 638.311 372.229C638.315 372.823 638.202 373.412 637.978 373.961C637.754 374.511 637.423 375.011 637.005 375.433C636.587 375.854 636.089 376.189 635.541 376.417C634.993 376.645 634.405 376.763 633.811 376.763H619.261C618.187 376.767 617.148 376.386 616.332 375.688C615.516 374.991 614.978 374.023 614.816 372.962L605.839 315.895C605.707 315.06 605.278 314.301 604.631 313.757C603.984 313.214 603.161 312.923 602.316 312.939C601.471 312.954 600.66 313.275 600.033 313.842C599.407 314.409 599.006 315.184 598.906 316.023L591.779 375.625C591.645 376.717 591.117 377.722 590.294 378.453C589.472 379.183 588.411 379.588 587.311 379.591C587.24 379.591 587.169 379.589 587.097 379.585Z" fill="#2F2E41"/>
<path d="M596.598 245.701C584.699 239.089 575.401 237.352 570.918 236.905C570.322 236.847 569.744 236.669 569.22 236.382C568.695 236.094 568.234 235.703 567.865 235.232C567.487 234.757 567.21 234.211 567.05 233.627C566.89 233.042 566.85 232.431 566.933 231.83L579.871 135.78C580.616 130.16 582.786 124.825 586.175 120.282C589.565 115.738 594.06 112.138 599.234 109.823C604.243 107.52 609.757 106.538 615.252 106.969C620.748 107.399 626.041 109.229 630.63 112.284C631.073 112.579 631.508 112.88 631.935 113.187C637.219 117.059 641.239 122.408 643.488 128.56C645.736 134.713 646.114 141.394 644.572 147.76C636.638 180.215 633.913 233.422 633.447 243.759C633.41 244.64 633.114 245.491 632.595 246.204C632.075 246.916 631.357 247.459 630.529 247.764C625.648 249.538 620.497 250.455 615.303 250.475C608.762 250.515 602.32 248.87 596.598 245.701Z" fill="#3F3D56"/>
<path d="M607.419 96.7808C620.984 96.7808 631.98 85.7845 631.98 72.2198C631.98 58.6551 620.984 47.6588 607.419 47.6588C593.855 47.6588 582.858 58.6551 582.858 72.2198C582.858 85.7845 593.855 96.7808 607.419 96.7808Z" fill="#A0616A"/>
<path d="M624.8 91.6513C620.218 96.5321 611.709 93.912 611.112 87.2442C611.065 86.7265 611.068 86.2055 611.122 85.6885C611.43 82.7349 613.137 80.0535 612.728 76.9349C612.635 76.1587 612.346 75.4191 611.888 74.786C608.237 69.8966 599.665 76.9728 596.22 72.5467C594.107 69.8327 596.59 65.5595 594.969 62.5262C592.829 58.5226 586.49 60.4975 582.515 58.305C578.092 55.8655 578.357 49.0797 581.268 44.9523C584.819 39.9187 591.044 37.2328 597.192 36.8457C603.339 36.4586 609.444 38.1205 615.184 40.3572C621.705 42.8985 628.171 46.4107 632.184 52.1447C637.065 59.1179 637.534 68.4926 635.094 76.6464C633.609 81.6065 628.542 87.6657 624.8 91.6513Z" fill="#2F2E41"/>
<path d="M644.251 115.53C643.82 113.51 640.13 110.75 634.851 108.5C626.364 105.063 617.185 103.678 608.062 104.46C598.938 105.242 590.129 108.168 582.351 113C581.808 113.029 581.29 113.236 580.876 113.588C580.462 113.94 580.176 114.419 580.061 114.95L562.3 193.5L559.99 203.73L558.461 210.5L556.15 220.7L554.92 226.15C554.842 226.498 554.838 226.86 554.911 227.209C554.983 227.559 555.129 227.89 555.339 228.178C555.549 228.467 555.819 228.708 556.13 228.884C556.44 229.06 556.785 229.168 557.141 229.2L633.831 235.82C633.9 235.82 633.981 235.83 634.05 235.83C634.683 235.826 635.291 235.583 635.751 235.148C636.211 234.714 636.49 234.121 636.53 233.49L637.26 222.38L638.041 210.5L638.38 205.35L639.15 193.5L644.26 115.66V115.59L644.251 115.53Z" fill="#3B82F6"/>
<path d="M518.416 120.474C518.539 121.014 518.618 121.562 518.655 122.115L561.612 146.897L572.054 140.886L583.185 155.458L560.848 171.378L511.84 132.716C509.841 133.455 507.665 133.569 505.6 133.041C503.535 132.514 501.679 131.37 500.28 129.762C498.881 128.155 498.004 126.159 497.767 124.041C497.53 121.923 497.943 119.783 498.951 117.905C499.96 116.028 501.516 114.502 503.413 113.53C505.31 112.559 507.458 112.188 509.571 112.467C511.684 112.746 513.662 113.661 515.242 115.092C516.822 116.522 517.929 118.4 518.416 120.474H518.416Z" fill="#A0616A"/>
<path d="M563.147 144.789C563.075 144.122 563.154 143.448 563.378 142.816C563.602 142.183 563.965 141.609 564.44 141.136L586.303 119.267C588.469 117.101 591.361 115.813 594.421 115.652C597.48 115.492 600.491 116.469 602.872 118.397C605.253 120.325 606.836 123.066 607.316 126.091C607.796 129.117 607.139 132.214 605.471 134.784L589.901 158.776C589.251 159.776 588.23 160.477 587.063 160.725C585.896 160.974 584.678 160.749 583.677 160.101L565.173 148.092C564.609 147.728 564.135 147.243 563.784 146.671C563.434 146.099 563.216 145.456 563.147 144.789Z" fill="#3F3D56"/>
<path d="M639.15 193.5L638.38 205.35L559.99 203.73L562.3 193.5H639.15Z" fill="#CCCCCC"/>
<path d="M638.041 210.5L637.26 222.38L556.15 220.7L558.461 210.5H638.041Z" fill="#CCCCCC"/>
<path d="M607.9 24.5C599.588 24.5009 591.602 27.7371 585.634 33.5233C579.666 39.3095 576.184 47.1914 575.926 55.5H569.9C569.37 55.5 568.861 55.7107 568.486 56.0858C568.111 56.4609 567.9 56.9696 567.9 57.5V65.5C567.9 66.0304 568.111 66.5391 568.486 66.9142C568.861 67.2893 569.37 67.5 569.9 67.5H637.9C638.431 67.5 638.94 67.2893 639.315 66.9142C639.69 66.5391 639.9 66.0304 639.9 65.5V56.4999C639.9 52.2976 639.073 48.1365 637.465 44.2541C635.856 40.3716 633.499 36.844 630.528 33.8725C627.556 30.901 624.029 28.5439 620.146 26.9358C616.264 25.3277 612.103 24.5 607.9 24.5V24.5Z" fill="#3B82F6"/>
<path d="M108.114 343.056C101.786 345.281 94.9904 345.838 88.3836 344.674C81.7768 343.511 75.5811 340.665 70.3933 336.411C57.1813 325.322 53.039 307.053 49.6685 290.136L39.6992 240.101L60.5708 254.472C75.5805 264.807 90.9283 275.473 101.321 290.443C111.714 305.413 116.25 325.848 107.9 342.047" fill="#07C0B5"/>
<path d="M106.33 403.635C108.443 388.247 110.615 372.662 109.133 357.11C107.817 343.298 103.603 329.807 95.0245 318.745C90.4708 312.885 84.9298 307.864 78.6507 303.908C77.0133 302.874 75.5063 305.469 77.1365 306.498C88.0013 313.365 96.4048 323.504 101.135 335.455C106.36 348.744 107.199 363.231 106.299 377.348C105.754 385.885 104.601 394.367 103.438 402.837C103.346 403.22 103.403 403.624 103.598 403.966C103.792 404.309 104.109 404.565 104.485 404.682C104.869 404.786 105.278 404.734 105.623 404.538C105.968 404.341 106.223 404.017 106.33 403.635V403.635Z" fill="#F2F2F2"/>
<path d="M85.9832 376.406C83.2688 380.532 79.5378 383.888 75.1495 386.153C70.7612 388.418 65.8636 389.515 60.9285 389.337C48.2453 388.735 37.6716 379.883 28.1533 371.479L0 346.622L18.6328 345.73C32.0324 345.089 45.7777 344.491 58.5404 348.623C71.3031 352.755 83.0735 362.7 85.4072 375.911" fill="#07C0B5"/>
<path d="M112.3 412.48C102.132 394.489 90.3388 374.494 69.2654 368.103C63.406 366.332 57.262 365.698 51.1644 366.234C49.2426 366.4 49.7225 369.362 51.6408 369.197C61.8618 368.348 72.0631 371.047 80.5273 376.839C88.6722 382.383 95.0138 390.091 100.381 398.264C103.669 403.271 106.614 408.49 109.56 413.702C110.501 415.368 113.252 414.165 112.3 412.48V412.48Z" fill="#F2F2F2"/>
<path d="M742.704 416.5H30.7036C30.4384 416.5 30.1841 416.395 29.9965 416.207C29.809 416.02 29.7036 415.765 29.7036 415.5C29.7036 415.235 29.809 414.98 29.9965 414.793C30.1841 414.605 30.4384 414.5 30.7036 414.5H742.704C742.969 414.5 743.223 414.605 743.411 414.793C743.598 414.98 743.704 415.235 743.704 415.5C743.704 415.765 743.598 416.02 743.411 416.207C743.223 416.395 742.969 416.5 742.704 416.5Z" fill="#CCCCCC"/>
</svg>
