<svg width="128" height="128" viewBox="0 0 128 128" fill="none" xmlns="http://www.w3.org/2000/svg">
<g clip-path="url(#clip0_813_3134)">
<rect width="128" height="128" rx="12" fill="#1C1917"/>
<path d="M36.4325 103C35.5965 103 34.9125 102.734 34.3805 102.202C33.8485 101.67 33.5825 100.986 33.5825 100.15V26.05C33.5825 25.214 33.8485 24.53 34.3805 23.998C34.9125 23.466 35.5965 23.2 36.4325 23.2H66.6425C76.1425 23.2 83.6285 25.404 89.1005 29.812C94.5725 34.144 97.3085 40.414 97.3085 48.622C97.3085 54.17 95.9785 58.806 93.3185 62.53C90.6585 66.254 87.0865 69.028 82.6025 70.852L98.6765 99.352C98.9045 99.808 99.0185 100.226 99.0185 100.606C99.0185 101.214 98.7905 101.784 98.3345 102.316C97.8785 102.772 97.3085 103 96.6245 103H83.9705C82.6025 103 81.5765 102.658 80.8925 101.974C80.2085 101.214 79.7145 100.53 79.4105 99.922L65.5025 73.816H51.7085V100.15C51.7085 100.986 51.4425 101.67 50.9105 102.202C50.3785 102.734 49.6945 103 48.8585 103H36.4325ZM51.7085 59.338H66.3005C70.4805 59.338 73.5585 58.388 75.5345 56.488C77.5865 54.588 78.6125 51.928 78.6125 48.508C78.6125 45.088 77.6245 42.39 75.6485 40.414C73.6725 38.438 70.5565 37.45 66.3005 37.45H51.7085V59.338Z" fill="#FFDD00"/>
</g>
<defs>
<clipPath id="clip0_813_3134">
<rect width="128" height="128" rx="12" fill="white"/>
</clipPath>
</defs>
</svg>
